<svg id="svg" version="1.1" xmlns="http://www.w3.org/2000/svg" xmlns:xlink="http://www.w3.org/1999/xlink" width="400" height="110.28446389496717" viewBox="0, 0, 400,110.28446389496717"><g id="svgg"><path id="path0" d="M205.218 0.182 C 205.118 0.282,204.372 0.425,203.560 0.500 C 198.894 0.928,191.246 3.149,185.697 5.685 C 185.117 5.950,184.616 6.167,184.583 6.167 C 184.108 6.167,170.502 12.931,167.500 14.659 C 166.904 15.003,165.742 15.643,164.917 16.082 C 164.092 16.521,163.218 17.020,162.974 17.190 C 162.731 17.361,162.498 17.500,162.457 17.500 C 162.416 17.500,160.927 18.336,159.149 19.358 C 157.371 20.380,155.654 21.362,155.333 21.541 C 155.012 21.721,154.637 21.954,154.500 22.060 C 154.362 22.167,153.987 22.395,153.667 22.567 C 151.139 23.925,152.090 24.416,154.800 23.153 C 155.570 22.794,156.275 22.500,156.367 22.500 C 156.460 22.500,156.908 22.313,157.364 22.083 C 157.821 21.854,158.282 21.666,158.389 21.665 C 158.496 21.664,158.996 21.463,159.500 21.218 C 160.004 20.972,160.529 20.756,160.667 20.737 C 160.804 20.718,162.717 20.011,164.917 19.167 C 167.117 18.322,169.752 17.347,170.774 17.000 C 171.795 16.652,173.070 16.182,173.607 15.954 C 175.209 15.274,183.847 12.469,184.072 12.556 C 184.186 12.600,184.604 13.261,185.000 14.026 C 189.010 21.777,196.000 27.137,205.583 29.808 C 209.264 30.834,213.047 31.060,217.500 30.521 C 223.226 29.827,228.176 27.619,232.794 23.700 C 234.011 22.667,233.729 22.172,232.290 22.816 C 228.351 24.577,223.824 25.957,217.083 27.450 C 213.763 28.186,207.379 27.755,204.167 26.579 C 199.442 24.850,196.512 22.744,193.857 19.171 C 192.062 16.754,189.642 11.291,190.144 10.789 C 190.333 10.600,192.831 9.847,194.417 9.500 C 194.783 9.420,195.646 9.230,196.333 9.077 C 197.021 8.923,197.921 8.739,198.333 8.666 C 198.746 8.593,199.946 8.380,201.000 8.192 C 203.247 7.792,203.411 7.867,202.601 8.928 C 200.986 11.042,200.971 14.521,202.566 16.923 C 203.184 17.854,204.943 19.667,205.228 19.667 C 205.318 19.667,205.509 19.772,205.654 19.901 C 206.172 20.363,208.015 20.833,209.307 20.833 C 215.865 20.833,219.688 12.780,215.195 8.430 C 213.800 7.080,214.064 7.056,219.833 8.018 C 225.895 9.029,231.676 11.194,237.083 14.476 C 239.303 15.824,244.918 19.750,245.650 20.465 C 245.779 20.591,246.297 21.006,246.801 21.389 C 249.070 23.109,249.533 23.476,250.621 24.417 C 253.707 27.086,254.000 27.288,254.000 26.747 C 254.000 26.486,253.550 25.847,250.488 21.768 C 249.807 20.861,248.964 19.736,248.616 19.268 C 248.267 18.800,247.733 18.154,247.429 17.833 C 247.125 17.512,246.811 17.126,246.730 16.974 C 246.649 16.823,245.975 16.035,245.232 15.224 C 244.488 14.413,243.663 13.492,243.398 13.176 C 243.133 12.860,241.891 11.690,240.637 10.575 C 238.596 8.759,237.737 8.118,234.750 6.176 C 232.619 4.791,226.989 2.395,224.500 1.813 C 224.179 1.739,223.429 1.556,222.833 1.407 C 222.237 1.259,221.338 1.075,220.833 0.998 C 220.329 0.921,219.655 0.777,219.334 0.679 C 219.014 0.580,218.377 0.497,217.918 0.493 C 217.459 0.489,216.783 0.377,216.417 0.245 C 215.570 -0.060,205.516 -0.116,205.218 0.182 M23.185 31.395 C 23.087 31.512,22.739 32.203,22.411 32.929 C 21.194 35.625,20.152 37.771,16.067 45.994 C 12.097 53.987,8.625 61.047,7.130 64.167 C 6.757 64.946,6.372 65.733,6.274 65.917 C 6.177 66.100,4.923 68.575,3.489 71.417 C 0.660 77.022,0.314 77.664,0.125 77.666 C -0.113 77.668,0.001 78.131,0.264 78.232 C 0.642 78.377,10.381 78.352,10.596 78.206 C 10.695 78.138,11.020 77.483,11.318 76.750 C 12.385 74.123,12.701 73.527,13.065 73.451 C 13.508 73.358,33.980 73.420,34.057 73.514 C 34.089 73.552,34.614 74.616,35.224 75.879 C 36.021 77.529,36.439 78.214,36.709 78.312 C 37.352 78.548,46.346 78.327,46.444 78.073 C 46.489 77.954,45.696 76.161,44.680 74.088 C 43.664 72.016,42.833 70.293,42.833 70.260 C 42.833 70.170,40.226 64.800,37.083 58.417 C 34.435 53.039,32.992 50.070,31.011 45.917 C 25.617 34.611,23.609 30.884,23.185 31.395 M284.799 31.867 C 284.661 32.077,284.490 32.438,284.419 32.667 C 284.348 32.896,284.159 33.271,284.000 33.500 C 283.623 34.043,282.563 36.089,281.840 37.667 C 281.526 38.354,280.911 39.578,280.475 40.385 C 280.039 41.193,279.632 42.018,279.569 42.219 C 279.507 42.419,279.321 42.775,279.156 43.010 C 278.991 43.245,278.803 43.657,278.739 43.927 C 278.674 44.196,278.531 44.529,278.419 44.667 C 278.132 45.020,268.000 65.376,268.000 65.599 C 268.000 65.636,267.250 67.200,266.333 69.075 C 265.417 70.950,264.667 72.523,264.667 72.570 C 264.667 72.618,264.300 73.277,263.852 74.037 C 262.449 76.413,261.737 77.970,261.954 78.187 C 262.134 78.368,271.885 78.424,272.173 78.246 C 272.232 78.210,272.561 77.483,272.903 76.631 C 273.914 74.119,274.041 73.840,274.260 73.658 C 274.573 73.399,295.476 73.439,295.790 73.700 C 296.024 73.894,296.733 75.347,297.360 76.917 C 297.965 78.430,297.565 78.333,303.198 78.333 C 307.712 78.333,308.187 78.307,308.285 78.053 C 308.354 77.873,307.785 76.567,306.707 74.428 C 304.835 70.713,300.603 62.092,299.952 60.667 C 299.721 60.163,298.396 57.425,297.007 54.583 C 295.618 51.742,294.307 49.042,294.092 48.583 C 293.540 47.402,288.675 37.465,287.082 34.265 C 285.659 31.406,285.327 31.058,284.799 31.867 M386.820 34.099 C 386.697 34.247,386.518 34.509,386.423 34.681 C 386.328 34.853,385.781 35.672,385.208 36.501 C 384.635 37.329,384.167 38.049,384.167 38.099 C 384.167 38.149,383.876 38.541,383.522 38.970 C 383.167 39.399,382.473 40.336,381.980 41.052 C 381.487 41.768,380.858 42.676,380.583 43.069 C 380.308 43.462,379.935 44.001,379.754 44.267 C 379.573 44.532,378.860 45.538,378.168 46.500 C 377.477 47.462,376.704 48.550,376.450 48.917 C 376.197 49.283,375.508 50.258,374.920 51.083 C 374.332 51.908,373.171 53.584,372.339 54.807 L 370.827 57.031 371.289 57.651 C 371.850 58.405,373.237 60.120,374.583 61.725 C 375.133 62.380,375.641 62.992,375.711 63.083 C 375.781 63.175,376.442 64.000,377.180 64.917 C 377.917 65.833,378.720 66.846,378.962 67.167 C 379.205 67.487,379.863 68.275,380.424 68.917 C 380.985 69.558,381.513 70.203,381.597 70.350 C 381.681 70.497,382.029 70.947,382.370 71.350 C 383.069 72.176,384.414 73.812,386.500 76.374 L 387.917 78.113 390.167 78.215 C 391.404 78.272,393.729 78.285,395.333 78.245 C 396.938 78.205,398.609 78.171,399.047 78.169 C 399.905 78.166,400.258 77.826,399.795 77.450 C 399.601 77.293,397.799 75.125,397.134 74.250 C 397.022 74.102,395.542 72.301,394.806 71.417 C 394.653 71.233,394.053 70.512,393.473 69.815 C 392.892 69.117,391.991 68.029,391.470 67.398 C 389.609 65.140,386.770 61.749,386.673 61.667 C 386.619 61.621,386.315 61.246,385.997 60.833 C 385.680 60.421,385.182 59.821,384.891 59.500 C 382.380 56.731,382.381 56.764,384.738 53.664 C 385.151 53.121,385.683 52.394,385.919 52.047 C 386.156 51.700,386.647 51.004,387.011 50.500 C 387.375 49.996,387.938 49.208,388.261 48.750 C 388.584 48.292,389.108 47.579,389.426 47.167 C 389.743 46.754,390.263 46.042,390.581 45.583 C 391.405 44.396,392.138 43.364,393.000 42.178 C 395.149 39.222,395.984 38.068,396.660 37.123 C 397.070 36.551,397.704 35.723,398.070 35.282 C 399.219 33.898,399.316 33.924,392.712 33.873 C 387.657 33.834,387.020 33.858,386.820 34.099 M89.811 34.180 C 89.641 34.286,89.586 42.401,89.754 42.673 C 89.815 42.771,92.382 42.833,96.417 42.833 C 101.143 42.833,103.013 42.886,103.098 43.023 C 103.189 43.171,103.368 51.022,103.297 51.750 C 103.288 51.842,103.274 57.804,103.265 65.000 L 103.250 78.083 107.543 78.225 C 109.905 78.304,111.949 78.325,112.085 78.272 C 112.303 78.189,112.334 76.034,112.336 60.797 C 112.337 51.238,112.395 43.328,112.464 43.219 C 112.693 42.858,115.181 42.749,121.000 42.843 C 127.543 42.948,127.122 42.992,127.270 42.201 C 127.377 41.630,127.214 34.326,127.092 34.203 C 126.990 34.101,89.976 34.079,89.811 34.180 M135.178 34.236 C 134.867 34.612,134.908 77.807,135.220 78.123 C 135.433 78.338,165.330 78.458,165.674 78.245 C 166.009 78.038,165.872 70.087,165.529 69.776 C 165.252 69.525,164.258 69.500,154.691 69.500 L 144.158 69.500 144.022 69.125 C 143.805 68.533,143.808 61.148,144.024 60.887 C 144.173 60.709,146.173 60.667,154.570 60.667 C 162.408 60.667,164.982 60.618,165.133 60.467 C 165.278 60.322,165.333 59.133,165.333 56.167 C 165.333 53.200,165.278 52.011,165.133 51.867 C 164.982 51.715,162.425 51.667,154.645 51.667 C 145.515 51.667,144.328 51.637,144.095 51.405 C 143.748 51.058,143.700 43.574,144.042 43.121 C 144.306 42.772,143.834 42.785,155.466 42.817 C 160.810 42.832,165.254 42.799,165.342 42.745 C 165.442 42.683,165.463 41.101,165.398 38.531 C 165.275 33.674,165.380 33.920,163.500 34.067 C 161.976 34.187,136.822 34.177,135.991 34.057 C 135.572 33.996,135.334 34.049,135.178 34.236 M175.375 34.103 C 175.210 34.176,175.167 38.695,175.167 55.899 C 175.167 72.999,175.211 77.663,175.375 77.888 C 175.564 78.146,175.986 78.168,179.833 78.128 L 184.083 78.083 184.126 60.591 C 184.149 50.970,184.231 43.036,184.308 42.959 C 184.552 42.715,192.588 42.804,194.333 43.070 C 200.874 44.066,203.676 47.621,202.661 53.633 C 202.210 56.304,199.723 58.794,196.583 59.720 C 194.262 60.405,190.644 60.917,189.042 60.789 C 187.617 60.674,187.083 61.029,187.592 61.752 C 187.770 62.006,187.992 62.331,188.083 62.476 C 188.175 62.620,188.531 63.131,188.875 63.612 C 189.219 64.093,189.500 64.534,189.500 64.594 C 189.500 64.653,189.716 64.975,189.981 65.309 C 190.245 65.643,190.792 66.404,191.195 67.000 C 193.067 69.768,193.923 70.976,194.520 71.697 C 194.876 72.126,195.167 72.520,195.167 72.573 C 195.167 72.682,196.818 75.113,197.494 76.000 C 197.739 76.321,198.141 76.936,198.389 77.368 C 198.970 78.381,198.798 78.357,205.065 78.298 C 211.548 78.238,211.176 78.557,208.710 75.167 C 208.143 74.387,207.408 73.375,207.077 72.917 C 206.746 72.458,206.116 71.596,205.678 71.000 C 204.643 69.593,202.650 66.626,202.706 66.578 C 202.730 66.557,203.296 66.245,203.962 65.883 C 207.290 64.081,210.163 60.773,211.169 57.583 C 211.285 57.217,211.442 56.729,211.517 56.500 C 213.004 51.984,212.182 45.671,209.600 41.778 C 208.573 40.230,206.308 38.000,205.762 38.000 C 205.710 38.000,205.305 37.740,204.862 37.421 C 203.612 36.523,200.627 35.361,198.250 34.847 C 195.111 34.169,194.989 34.162,185.844 34.150 C 180.934 34.144,176.617 34.111,176.250 34.076 C 175.883 34.041,175.490 34.053,175.375 34.103 M220.387 34.304 C 220.207 34.484,220.163 38.457,220.147 56.054 C 220.126 79.271,220.112 78.022,220.392 78.216 C 220.790 78.492,239.480 78.252,240.667 77.956 C 241.262 77.807,242.162 77.595,242.667 77.485 C 251.041 75.651,257.327 69.579,259.469 61.257 C 260.025 59.096,260.119 53.266,259.630 51.250 C 258.792 47.792,257.131 44.262,255.553 42.583 C 255.381 42.400,255.018 41.957,254.747 41.599 C 254.180 40.850,251.303 38.385,250.674 38.109 C 250.441 38.007,249.983 37.734,249.656 37.503 C 248.478 36.670,245.362 35.442,243.167 34.944 C 240.028 34.232,238.868 34.162,229.595 34.122 C 222.328 34.091,220.565 34.126,220.387 34.304 M314.992 34.242 C 314.753 34.481,314.779 77.947,315.018 78.094 C 315.359 78.305,323.730 78.167,323.869 77.948 C 323.938 77.839,323.996 69.894,323.997 60.292 L 324.000 42.833 328.292 42.836 C 333.810 42.840,335.564 43.103,337.880 44.272 C 338.672 44.672,339.086 44.958,340.095 45.800 C 341.880 47.291,342.749 50.667,342.098 53.583 C 341.104 58.040,336.440 60.656,329.465 60.669 C 327.222 60.673,327.100 60.848,328.249 62.403 C 328.661 62.961,329.505 64.118,330.124 64.975 C 330.743 65.832,331.543 66.913,331.901 67.377 C 332.258 67.842,332.821 68.610,333.151 69.085 C 333.480 69.561,334.104 70.429,334.536 71.016 C 334.968 71.603,335.592 72.458,335.922 72.917 C 336.253 73.375,337.024 74.438,337.637 75.279 C 338.249 76.120,338.956 77.114,339.207 77.488 L 339.663 78.167 345.415 78.167 C 352.137 78.167,351.740 78.334,350.125 76.182 C 349.552 75.418,348.971 74.634,348.833 74.438 C 348.204 73.545,345.562 70.050,345.300 69.764 C 345.139 69.589,344.653 68.914,344.219 68.264 C 343.785 67.615,343.333 66.984,343.215 66.863 C 342.817 66.456,342.994 66.208,344.208 65.477 C 351.862 60.869,354.241 48.941,348.955 41.676 C 346.141 37.807,342.150 35.668,335.583 34.507 C 333.521 34.143,315.325 33.908,314.992 34.242 M358.939 34.251 C 358.760 34.718,358.815 77.488,358.995 77.824 C 359.249 78.298,367.777 78.530,368.112 78.072 C 368.293 77.824,368.333 73.861,368.333 56.230 L 368.333 34.691 367.875 34.329 C 367.474 34.012,367.281 33.979,366.333 34.066 C 365.102 34.178,362.195 34.172,360.314 34.055 C 359.240 33.987,359.029 34.018,358.939 34.251 M53.236 34.458 C 53.001 34.975,52.938 77.808,53.172 78.090 C 53.448 78.422,61.901 78.456,62.115 78.125 C 62.189 78.010,62.250 74.054,62.250 69.333 L 62.250 60.750 72.370 60.707 L 82.490 60.664 82.679 60.309 C 82.916 59.868,82.717 52.192,82.461 51.875 C 82.330 51.713,80.169 51.666,72.688 51.664 C 67.405 51.663,62.915 51.617,62.708 51.562 L 62.333 51.461 62.333 47.242 C 62.333 43.275,62.352 43.017,62.643 42.924 C 62.814 42.870,67.333 42.852,72.685 42.884 C 78.037 42.916,82.592 42.879,82.807 42.802 L 83.197 42.663 83.130 38.707 C 83.093 36.530,83.003 34.619,82.930 34.458 C 82.805 34.184,81.935 34.167,68.083 34.167 C 54.231 34.167,53.361 34.184,53.236 34.458 M239.333 43.133 C 247.277 44.291,252.495 51.792,250.487 59.167 C 250.300 59.854,250.129 60.529,250.108 60.667 C 249.558 64.184,244.506 68.042,238.833 69.276 C 237.514 69.562,230.063 69.712,229.458 69.464 C 229.152 69.338,228.984 43.238,229.288 42.935 C 229.467 42.755,237.882 42.922,239.333 43.133 M286.073 52.889 C 286.473 53.729,287.137 55.167,287.549 56.083 C 287.962 57.000,288.607 58.402,288.983 59.198 C 289.359 59.995,289.667 60.679,289.667 60.720 C 289.667 60.760,290.119 61.748,290.672 62.915 C 291.462 64.580,291.636 65.086,291.485 65.268 C 291.198 65.614,278.500 65.614,278.500 65.267 C 278.500 64.981,279.353 63.104,281.903 57.779 C 282.598 56.328,283.167 55.109,283.167 55.069 C 283.167 54.777,285.079 51.196,285.196 51.268 C 285.278 51.319,285.673 52.048,286.073 52.889 M24.000 51.659 C 24.000 51.838,24.681 53.394,25.514 55.117 C 26.346 56.840,27.239 58.700,27.497 59.250 C 27.756 59.800,28.462 61.292,29.067 62.565 C 29.672 63.838,30.167 65.020,30.167 65.192 C 30.167 65.492,29.919 65.502,23.542 65.460 C 15.855 65.410,16.559 65.678,17.747 63.250 C 18.777 61.144,20.500 57.484,20.500 57.402 C 20.500 57.364,20.885 56.527,21.355 55.541 C 21.825 54.556,22.458 53.206,22.762 52.542 C 23.323 51.315,24.000 50.832,24.000 51.659 M228.659 93.916 C 226.755 94.295,225.142 95.348,224.391 96.700 C 224.037 97.339,224.102 100.052,224.489 100.812 C 225.196 102.197,227.254 103.075,231.000 103.591 C 232.321 103.773,233.241 104.325,233.303 104.974 C 233.494 106.961,229.951 107.237,226.696 105.489 C 225.151 104.659,225.139 104.660,224.359 105.708 C 223.363 107.047,223.257 107.306,223.568 107.650 C 224.064 108.198,226.254 109.322,227.333 109.582 C 227.929 109.726,228.547 109.917,228.706 110.005 C 229.179 110.269,232.056 110.204,232.606 109.918 C 232.869 109.781,233.233 109.668,233.417 109.666 C 235.809 109.648,237.962 105.518,236.853 103.075 C 236.309 101.878,234.428 100.467,233.731 100.734 C 233.594 100.787,233.318 100.722,233.116 100.590 C 232.915 100.458,232.412 100.303,232.000 100.246 C 229.518 99.901,228.053 99.353,227.892 98.709 C 227.447 96.938,230.787 96.419,233.861 97.781 C 234.956 98.266,235.031 98.242,235.983 97.086 C 236.846 96.039,236.858 95.631,236.041 95.091 C 234.272 93.920,231.139 93.421,228.659 93.916 M257.825 93.924 C 255.781 94.332,253.921 95.507,253.616 96.583 C 253.565 96.767,253.399 97.253,253.248 97.665 C 252.312 100.222,254.346 102.488,258.167 103.146 C 260.730 103.588,261.208 103.696,261.903 103.994 C 263.015 104.471,263.109 105.231,262.164 106.085 C 261.841 106.377,261.565 106.416,259.857 106.409 L 257.917 106.402 256.179 105.589 L 254.441 104.777 253.956 105.347 C 252.404 107.170,252.388 107.376,253.734 108.283 C 255.004 109.139,256.075 109.554,257.544 109.760 C 257.980 109.822,258.378 109.938,258.429 110.019 C 258.549 110.214,261.287 110.210,261.408 110.015 C 261.459 109.931,261.820 109.809,262.209 109.745 C 264.563 109.353,266.296 107.477,266.463 105.141 C 266.664 102.341,265.011 100.835,261.000 100.163 C 257.634 99.600,256.538 99.031,256.974 98.074 C 257.577 96.751,260.819 96.638,263.466 97.848 C 264.327 98.242,264.460 98.182,265.344 97.006 C 266.153 95.929,266.137 95.572,265.250 94.992 C 263.618 93.924,260.249 93.440,257.825 93.924 M135.625 93.958 C 135.440 94.000,135.330 94.187,135.323 94.471 C 135.318 94.716,135.321 98.142,135.330 102.083 C 135.348 110.395,135.163 109.667,137.264 109.667 C 138.889 109.667,138.833 109.740,138.833 107.593 C 138.833 106.742,138.880 105.707,138.937 105.293 L 139.040 104.539 141.562 104.452 C 146.684 104.275,148.851 102.317,148.334 98.333 C 147.889 94.905,146.136 93.983,140.111 94.006 C 137.943 94.014,136.112 93.992,136.043 93.957 C 135.973 93.921,135.785 93.922,135.625 93.958 M165.273 94.250 C 164.830 94.694,164.860 108.988,165.305 109.391 C 165.696 109.745,168.190 109.790,168.474 109.448 C 168.579 109.321,168.676 108.313,168.703 107.073 L 168.750 104.917 169.856 104.868 C 171.183 104.809,171.053 104.701,172.754 107.282 C 174.403 109.786,174.229 109.667,176.227 109.667 C 178.756 109.667,178.899 109.315,177.208 107.250 C 175.216 104.818,175.046 104.347,176.006 103.914 C 179.576 102.304,179.485 96.327,175.864 94.548 L 174.917 94.083 170.232 94.030 C 166.067 93.983,165.516 94.007,165.273 94.250 M195.591 94.155 C 195.425 94.424,195.361 109.064,195.525 109.375 C 195.720 109.745,207.601 109.832,207.967 109.467 C 208.214 109.219,208.235 107.105,207.994 106.656 C 207.831 106.350,207.603 106.333,203.702 106.331 C 198.827 106.328,198.549 106.189,199.112 104.029 L 199.256 103.475 202.795 103.493 C 207.122 103.516,207.000 103.561,207.000 101.943 C 207.000 100.089,207.199 100.177,202.917 100.127 L 199.250 100.083 199.250 98.750 L 199.250 97.417 203.631 97.333 C 207.281 97.264,208.039 97.208,208.170 97.000 C 208.431 96.587,208.365 94.786,208.074 94.370 L 207.814 94.000 201.750 94.000 C 198.197 94.000,195.647 94.064,195.591 94.155 M142.899 97.484 C 144.659 97.703,145.316 99.426,144.103 100.640 C 143.593 101.151,139.942 101.415,139.162 100.997 C 138.754 100.779,138.809 97.729,139.226 97.461 C 139.464 97.308,141.593 97.321,142.899 97.484 M174.121 97.795 C 174.628 98.085,174.833 98.522,174.833 99.310 C 174.833 100.792,173.488 101.500,170.670 101.500 C 168.635 101.500,168.667 101.535,168.667 99.310 L 168.667 97.519 169.375 97.468 C 170.703 97.372,173.748 97.582,174.121 97.795 " stroke="none" fill="#ffffff" fill-rule="evenodd"></path></g></svg>