<svg id="svg" xmlns="http://www.w3.org/2000/svg" xmlns:xlink="http://www.w3.org/1999/xlink" width="400" height="342.1276595744681" viewBox="0, 0, 400,342.1276595744681" version="1.1"><g id="svgg"><path id="path0" d="M249.115 22.060 C 248.087 22.492,247.183 23.056,247.106 23.313 C 247.029 23.571,246.660 24.025,246.286 24.324 C 245.687 24.802,245.583 25.413,245.422 29.386 C 245.213 34.535,245.332 34.347,242.083 34.670 C 240.951 34.782,239.104 35.100,237.977 35.376 C 236.850 35.651,234.544 35.983,232.851 36.111 C 231.159 36.240,229.080 36.618,228.232 36.951 C 227.384 37.284,225.696 37.671,224.482 37.810 C 223.267 37.950,221.727 38.339,221.060 38.674 C 220.392 39.009,219.076 39.389,218.135 39.518 C 217.194 39.647,215.962 40.030,215.398 40.370 C 214.833 40.710,213.678 41.101,212.831 41.239 C 211.985 41.377,210.941 41.766,210.512 42.103 C 210.083 42.439,209.082 42.824,208.288 42.958 C 207.493 43.092,206.481 43.485,206.039 43.833 C 205.596 44.180,204.716 44.562,204.084 44.680 C 203.451 44.799,202.755 45.111,202.537 45.374 C 202.024 45.991,199.688 45.992,199.176 45.376 C 198.959 45.115,198.115 44.733,197.300 44.528 C 196.485 44.322,195.630 43.928,195.400 43.651 C 195.171 43.374,194.300 43.045,193.467 42.920 C 192.633 42.795,191.606 42.422,191.185 42.092 C 190.764 41.761,189.726 41.377,188.879 41.239 C 188.033 41.101,186.878 40.713,186.313 40.376 C 185.749 40.040,184.594 39.656,183.747 39.523 C 182.900 39.390,181.572 39.006,180.795 38.669 C 180.018 38.333,178.556 37.955,177.544 37.829 C 176.533 37.704,174.859 37.310,173.824 36.953 C 172.789 36.596,170.402 36.143,168.520 35.946 C 166.638 35.749,164.405 35.325,163.559 35.004 C 162.158 34.473,159.665 34.419,136.006 34.404 L 109.992 34.388 108.296 36.014 C 107.362 36.908,106.500 37.639,106.379 37.639 C 106.258 37.639,105.409 36.908,104.491 36.014 L 102.823 34.388 82.121 34.282 C 59.185 34.165,59.664 34.124,57.827 36.347 L 56.630 37.796 56.507 41.846 C 56.354 46.920,57.282 46.536,45.191 46.536 C 36.499 46.536,35.608 46.589,34.862 47.162 C 34.413 47.506,33.815 47.873,33.533 47.976 C 33.251 48.080,32.596 49.007,32.079 50.036 L 31.138 51.908 31.138 171.942 L 31.138 291.976 32.079 293.847 C 32.596 294.876,33.251 295.803,33.533 295.907 C 33.815 296.011,34.413 296.378,34.862 296.722 C 35.644 297.322,37.659 297.349,82.253 297.362 C 129.985 297.375,144.201 297.623,147.357 298.493 C 148.327 298.761,151.022 299.093,153.345 299.233 C 155.669 299.372,158.340 299.704,159.281 299.971 C 160.222 300.238,162.791 300.672,164.990 300.935 C 167.189 301.198,169.422 301.636,169.952 301.907 C 170.482 302.179,172.070 302.513,173.482 302.649 C 174.893 302.786,176.664 303.170,177.417 303.504 C 178.169 303.837,179.709 304.220,180.838 304.355 C 181.967 304.490,183.507 304.876,184.260 305.213 C 185.013 305.551,186.476 305.937,187.511 306.072 C 188.546 306.206,189.855 306.590,190.419 306.925 C 190.984 307.259,192.212 307.643,193.149 307.777 C 194.085 307.911,195.471 308.345,196.228 308.740 C 198.205 309.774,203.493 309.779,205.475 308.749 C 206.228 308.358,207.536 307.924,208.383 307.784 C 209.230 307.645,210.462 307.260,211.121 306.929 C 211.779 306.597,213.146 306.214,214.157 306.076 C 215.168 305.939,216.631 305.551,217.407 305.214 C 218.184 304.877,219.666 304.498,220.701 304.372 C 221.737 304.246,223.430 303.864,224.465 303.523 C 225.500 303.182,227.425 302.799,228.743 302.671 C 230.060 302.544,231.985 302.160,233.020 301.819 C 234.055 301.477,236.287 301.098,237.981 300.976 C 239.675 300.854,241.793 300.574,242.689 300.354 C 245.201 299.738,245.143 299.530,245.338 309.873 C 245.503 318.615,245.535 318.965,246.238 319.523 C 246.638 319.842,247.029 320.311,247.105 320.567 C 247.182 320.822,248.131 321.391,249.215 321.832 L 251.185 322.634 253.138 321.892 C 254.211 321.484,255.612 320.799,256.250 320.370 C 256.888 319.941,257.633 319.589,257.907 319.589 C 258.180 319.589,258.785 319.289,259.252 318.922 C 259.718 318.556,260.820 318.158,261.701 318.039 C 262.581 317.919,264.188 317.526,265.271 317.166 C 267.930 316.280,272.361 316.280,275.020 317.166 C 276.103 317.526,277.708 317.919,278.586 318.038 C 279.465 318.157,280.368 318.477,280.594 318.748 C 280.819 319.020,281.577 319.397,282.279 319.586 C 282.980 319.774,283.909 320.237,284.344 320.615 C 284.779 320.992,285.273 321.300,285.441 321.300 C 285.609 321.300,286.385 321.608,287.164 321.985 C 288.949 322.847,288.937 322.848,291.167 321.724 C 294.495 320.047,294.404 320.399,294.557 308.634 C 294.670 299.950,294.770 298.326,295.216 297.956 C 295.632 297.611,303.130 297.483,331.069 297.348 C 362.782 297.195,366.460 297.121,367.030 296.630 C 367.379 296.330,367.896 296.001,368.178 295.901 C 368.460 295.801,369.115 294.876,369.632 293.847 L 370.573 291.976 370.573 171.942 L 370.573 51.908 369.632 50.036 C 369.115 49.007,368.460 48.080,368.178 47.976 C 367.896 47.873,367.297 47.506,366.849 47.162 C 366.103 46.589,365.212 46.536,356.520 46.536 C 344.435 46.536,345.375 46.926,345.193 41.829 C 344.909 33.855,345.905 34.148,319.510 34.282 L 298.730 34.388 298.200 35.145 C 297.585 36.023,295.279 36.797,294.935 36.241 C 294.814 36.045,294.622 33.401,294.510 30.366 C 294.272 23.975,294.143 23.659,291.167 22.160 L 289.307 21.222 270.145 21.248 L 250.984 21.274 249.115 22.060 M282.444 33.267 C 283.234 34.394,283.263 305.923,282.474 306.578 C 281.853 307.093,279.269 306.804,276.183 305.874 C 273.148 304.959,267.259 304.967,264.029 305.890 C 259.944 307.058,257.854 307.155,257.190 306.207 C 256.371 305.039,256.321 35.465,257.138 33.884 C 257.829 32.548,257.404 32.591,270.383 32.546 L 281.912 32.506 282.444 33.267 M103.826 51.450 C 109.653 57.202,109.896 57.397,111.494 57.586 C 116.222 58.146,118.373 55.780,118.659 49.705 C 118.768 47.388,118.977 46.076,119.277 45.826 C 120.101 45.143,160.575 45.591,162.703 46.307 C 163.644 46.624,165.927 47.043,167.777 47.238 C 169.626 47.433,171.859 47.872,172.738 48.214 C 173.618 48.556,175.159 48.941,176.164 49.070 C 177.169 49.199,178.553 49.605,179.239 49.973 C 179.925 50.341,180.956 50.642,181.531 50.642 C 182.105 50.642,183.186 50.956,183.931 51.341 C 184.677 51.726,186.020 52.201,186.917 52.397 C 187.814 52.593,188.758 52.965,189.016 53.222 C 189.274 53.480,190.196 53.871,191.065 54.089 C 192.087 54.347,193.128 54.956,194.013 55.815 L 195.381 57.142 195.381 162.695 L 195.381 268.248 194.519 268.813 C 193.536 269.456,191.545 269.290,190.633 268.488 C 190.327 268.219,189.232 267.821,188.199 267.604 C 187.167 267.387,185.988 266.990,185.579 266.722 C 185.170 266.455,183.879 266.081,182.710 265.893 C 181.541 265.705,180.234 265.321,179.806 265.040 C 179.377 264.759,177.780 264.373,176.256 264.182 C 174.732 263.991,173.032 263.601,172.478 263.314 C 171.908 263.019,169.684 262.638,167.354 262.436 C 165.090 262.239,162.502 261.848,161.602 261.567 C 160.472 261.214,157.613 260.990,152.358 260.843 C 143.191 260.587,143.772 260.908,143.398 255.890 C 142.958 249.977,141.930 248.619,137.896 248.619 C 133.820 248.619,132.780 249.959,132.391 255.713 C 132.006 261.397,136.251 260.754,99.784 260.652 L 68.626 260.565 68.193 259.709 C 67.847 259.025,67.759 237.598,67.755 152.714 L 67.750 46.574 68.511 46.042 C 69.169 45.580,71.179 45.509,83.540 45.509 L 97.808 45.509 103.826 51.450 M333.200 46.042 L 333.961 46.574 333.956 152.714 C 333.952 237.555,333.864 259.025,333.518 259.709 L 333.086 260.565 327.098 260.658 C 319.412 260.777,319.869 261.090,319.614 255.540 C 319.382 250.488,318.827 249.437,316.017 248.729 C 314.308 248.299,310.351 248.856,310.351 249.527 C 310.351 249.709,309.988 250.290,309.544 250.817 C 308.828 251.668,308.719 252.216,308.563 255.738 C 308.456 258.169,308.222 259.901,307.959 260.218 C 307.239 261.086,296.343 260.968,295.247 260.082 L 294.440 259.427 294.337 159.226 C 294.281 104.115,294.333 58.056,294.452 56.873 L 294.668 54.720 299.250 50.115 L 303.832 45.509 318.136 45.509 C 330.528 45.509,332.541 45.580,333.200 46.042 M244.927 46.262 C 245.747 47.081,245.497 260.284,244.676 260.724 C 244.312 260.918,243.581 261.080,243.051 261.082 C 242.521 261.084,241.240 261.316,240.205 261.596 C 239.170 261.877,236.508 262.259,234.290 262.445 C 231.978 262.640,229.824 263.008,229.241 263.309 C 228.682 263.598,226.978 263.991,225.455 264.182 C 223.931 264.373,222.334 264.759,221.905 265.040 C 221.477 265.321,220.170 265.705,219.001 265.893 C 217.832 266.081,216.541 266.455,216.132 266.722 C 215.723 266.990,214.544 267.387,213.511 267.604 C 212.479 267.821,211.384 268.219,211.078 268.488 C 210.166 269.290,208.175 269.456,207.192 268.813 L 206.330 268.248 206.330 162.707 L 206.330 57.167 207.389 55.961 C 208.052 55.206,209.044 54.572,210.041 54.265 C 210.917 53.995,212.244 53.454,212.989 53.063 C 213.735 52.672,214.659 52.348,215.042 52.342 C 215.426 52.336,216.510 51.952,217.451 51.489 C 218.392 51.027,219.547 50.643,220.017 50.637 C 220.488 50.631,221.554 50.318,222.386 49.940 C 223.218 49.562,224.835 49.117,225.979 48.950 C 227.122 48.783,228.611 48.410,229.287 48.122 C 229.962 47.834,232.094 47.437,234.023 47.239 C 235.953 47.041,237.696 46.777,237.898 46.652 C 239.159 45.873,244.255 45.590,244.927 46.262 M56.104 58.489 C 56.346 58.941,56.459 92.009,56.459 162.809 C 56.459 219.821,56.556 266.953,56.675 267.548 C 56.802 268.186,57.572 269.324,58.555 270.328 L 60.219 272.027 107.184 272.036 C 151.949 272.045,159.896 272.193,161.494 273.048 C 161.856 273.242,163.922 273.544,166.086 273.721 C 168.255 273.898,170.456 274.268,170.995 274.547 C 171.533 274.825,173.059 275.202,174.387 275.386 C 175.715 275.571,177.251 275.954,177.800 276.238 C 178.350 276.522,179.667 276.915,180.728 277.111 C 181.790 277.307,183.247 277.783,183.967 278.169 C 184.687 278.555,185.681 278.871,186.176 278.871 C 186.671 278.871,187.461 279.173,187.931 279.543 C 188.401 279.913,189.536 280.384,190.452 280.589 C 191.369 280.795,192.352 281.171,192.638 281.425 C 192.923 281.679,193.819 282.063,194.628 282.279 C 195.438 282.494,196.180 282.878,196.277 283.132 C 196.836 284.588,204.000 284.467,205.904 282.969 C 206.344 282.623,207.192 282.233,207.787 282.102 C 208.382 281.971,209.260 281.590,209.738 281.255 C 210.216 280.920,211.169 280.550,211.856 280.434 C 212.543 280.317,213.286 280.003,213.508 279.736 C 213.729 279.469,214.784 279.072,215.852 278.854 C 216.919 278.636,218.026 278.252,218.310 278.000 C 218.595 277.749,219.775 277.391,220.934 277.204 C 222.092 277.018,223.508 276.623,224.080 276.327 C 224.653 276.031,226.315 275.622,227.773 275.419 C 229.232 275.217,230.850 274.831,231.369 274.562 C 231.900 274.288,234.229 273.926,236.687 273.737 C 239.093 273.551,241.718 273.224,242.522 273.009 C 245.252 272.280,245.368 272.613,245.259 280.870 L 245.167 287.884 242.717 288.654 C 241.332 289.089,238.509 289.574,236.216 289.772 C 233.988 289.963,231.621 290.348,230.958 290.627 C 230.294 290.906,228.316 291.294,226.561 291.490 C 224.806 291.686,223.159 292.022,222.901 292.236 C 222.642 292.451,221.025 292.836,219.306 293.093 C 217.588 293.350,215.977 293.730,215.726 293.938 C 215.475 294.146,214.028 294.533,212.510 294.798 C 210.993 295.063,209.405 295.502,208.982 295.774 C 208.558 296.046,207.442 296.375,206.501 296.506 C 205.560 296.637,204.310 297.034,203.724 297.388 C 202.299 298.248,199.417 298.250,197.987 297.392 C 197.401 297.040,196.189 296.658,195.294 296.543 C 194.400 296.428,193.091 296.045,192.386 295.692 C 191.680 295.338,190.221 294.949,189.142 294.828 C 188.064 294.706,186.601 294.315,185.892 293.959 C 185.182 293.602,183.611 293.208,182.400 293.081 C 181.189 292.955,179.760 292.625,179.226 292.349 C 178.691 292.073,176.911 291.683,175.269 291.484 C 173.627 291.284,171.745 290.894,171.086 290.617 C 170.428 290.340,168.426 289.961,166.638 289.775 C 164.850 289.589,162.233 289.151,160.821 288.802 C 159.410 288.452,156.428 288.069,154.195 287.950 C 151.962 287.832,149.345 287.570,148.378 287.369 C 147.412 287.167,145.851 286.859,144.910 286.683 C 143.926 286.499,122.331 286.292,94.098 286.198 C 67.092 286.107,44.639 285.955,44.203 285.861 C 42.317 285.454,42.429 292.664,42.429 171.975 C 42.429 58.373,42.420 59.233,43.708 58.255 C 44.753 57.461,55.664 57.667,56.104 58.489 M357.899 58.162 C 359.309 58.917,359.281 56.643,359.281 171.942 C 359.281 287.241,359.309 284.967,357.899 285.722 C 356.519 286.460,296.069 286.146,295.320 285.397 C 294.016 284.093,293.816 274.044,295.069 272.791 C 295.615 272.244,297.452 272.185,318.739 272.027 L 341.817 271.856 343.324 270.215 C 345.412 267.940,345.252 276.836,345.252 162.809 C 345.252 92.009,345.365 58.941,345.607 58.489 C 346.005 57.745,356.593 57.463,357.899 58.162 " stroke="none" fill="#bc9c5c" fill-rule="evenodd"></path></g></svg>