<svg id="svg" version="1.1" xmlns="http://www.w3.org/2000/svg" xmlns:xlink="http://www.w3.org/1999/xlink" width="400" height="400" viewBox="0, 0, 400,400"><g id="svgg"><path id="path0" d="M199.122 39.751 C 198.533 41.413,193.498 56.396,187.932 73.047 C 175.977 108.817,169.607 127.410,169.147 127.879 C 168.757 128.276,167.775 127.947,153.711 122.718 C 147.910 120.562,139.121 117.293,134.180 115.456 C 124.119 111.714,122.262 111.393,119.918 112.988 C 118.045 114.263,117.128 115.688,116.905 117.673 C 116.693 119.553,115.991 117.370,127.576 150.885 C 130.306 158.783,132.437 165.349,132.311 165.476 C 132.184 165.602,125.083 168.069,116.529 170.958 C 84.347 181.828,64.580 188.833,46.875 195.642 C 41.826 197.583,37.281 199.325,36.775 199.512 C 36.005 199.797,37.177 200.348,44.002 202.907 C 60.181 208.974,79.495 215.966,95.508 221.554 C 106.081 225.243,132.528 234.742,132.696 234.910 C 132.760 234.974,131.425 238.967,129.729 243.783 C 115.176 285.112,116.045 282.151,117.583 285.167 C 119.900 289.707,121.659 289.481,140.625 282.199 C 149.326 278.859,158.115 275.490,160.156 274.713 C 162.197 273.936,163.929 273.255,164.005 273.198 C 164.252 273.016,161.664 265.625,161.353 265.625 C 161.188 265.625,157.467 267.006,153.085 268.693 C 138.336 274.373,126.922 278.614,126.782 278.467 C 126.706 278.386,127.758 275.156,129.122 271.289 C 130.485 267.422,133.212 259.688,135.180 254.102 C 137.149 248.516,140.867 237.969,143.442 230.664 C 146.017 223.359,148.312 216.812,148.542 216.113 C 149.006 214.700,149.414 214.498,149.723 215.527 C 149.836 215.903,151.351 220.320,153.089 225.342 C 154.828 230.365,156.250 234.600,156.250 234.754 C 156.250 234.907,154.564 234.446,152.502 233.728 C 150.441 233.009,148.611 232.422,148.436 232.422 C 148.034 232.422,145.633 239.512,145.933 239.816 C 146.054 239.938,149.260 241.194,153.057 242.605 L 159.961 245.171 162.782 253.347 C 164.334 257.844,170.359 275.674,176.172 292.969 C 181.984 310.264,189.767 333.309,193.467 344.180 L 200.193 363.947 202.260 358.048 C 207.209 343.923,229.698 276.790,229.590 276.464 C 229.405 275.912,222.215 273.327,221.892 273.697 C 221.735 273.877,219.538 280.176,217.008 287.695 C 214.479 295.215,210.659 306.377,208.519 312.500 C 206.379 318.623,203.636 326.489,202.424 329.980 C 201.211 333.472,200.121 336.328,200.002 336.328 C 199.883 336.328,199.060 334.175,198.174 331.543 C 182.353 284.578,170.664 249.518,170.785 249.397 C 170.911 249.271,182.307 253.373,186.523 255.062 L 187.695 255.532 185.508 256.426 C 184.305 256.918,182.415 257.621,181.309 257.988 C 178.954 258.771,178.975 258.653,180.414 262.908 C 181.778 266.943,180.780 266.943,191.580 262.906 L 200.152 259.701 211.502 264.062 C 238.414 274.401,274.920 287.948,276.428 288.155 C 279.732 288.608,282.867 286.111,283.405 282.599 C 283.662 280.921,283.961 281.860,273.272 250.800 C 267.526 234.101,267.654 234.561,268.652 234.260 C 269.028 234.147,275.664 231.827,283.398 229.104 C 291.133 226.381,301.680 222.692,306.836 220.904 C 324.822 214.671,352.597 204.562,363.814 200.167 C 364.604 199.858,365.035 200.034,345.508 192.700 C 322.823 184.180,273.077 166.977,272.616 167.492 C 272.188 167.971,269.800 174.618,269.988 174.806 C 270.086 174.904,272.968 175.936,276.392 177.099 C 304.771 186.744,318.999 191.819,323.242 193.810 L 325.195 194.727 294.321 194.827 L 263.446 194.927 262.192 198.753 C 261.502 200.857,260.938 202.790,260.938 203.047 C 260.938 203.408,268.845 203.519,295.215 203.531 C 324.271 203.545,329.343 203.627,328.516 204.076 C 327.072 204.858,314.977 209.328,302.539 213.677 C 296.523 215.780,285.750 219.552,278.598 222.059 C 271.447 224.566,265.402 226.553,265.167 226.475 C 264.833 226.364,260.440 214.058,256.203 201.367 C 255.757 200.030,262.436 180.188,280.923 127.930 C 284.251 118.521,284.260 115.222,280.961 113.060 C 278.100 111.186,277.774 111.254,262.305 116.979 C 256.074 119.285,247.641 122.395,243.565 123.889 C 239.489 125.384,236.112 126.648,236.061 126.699 C 235.844 126.917,238.348 134.375,238.639 134.375 C 238.816 134.375,244.740 132.254,251.804 129.661 C 258.869 127.068,266.751 124.176,269.321 123.233 C 271.891 122.291,274.034 121.560,274.083 121.609 C 274.172 121.698,269.287 135.614,260.003 161.719 C 257.290 169.346,254.262 177.871,253.274 180.664 C 252.286 183.457,251.350 185.976,251.194 186.262 C 251.028 186.567,249.439 182.464,247.344 176.320 C 245.382 170.566,243.848 165.788,243.934 165.701 C 244.021 165.615,245.729 166.090,247.730 166.756 C 249.732 167.423,251.561 167.969,251.795 167.969 C 252.815 167.969,255.076 160.527,254.161 160.180 C 253.699 160.005,250.508 158.866,247.070 157.648 C 243.633 156.431,240.613 155.223,240.360 154.964 C 240.107 154.704,237.677 147.900,234.960 139.844 C 232.243 131.787,223.863 106.914,216.338 84.570 C 208.813 62.227,202.103 42.322,201.425 40.337 L 200.194 36.728 199.122 39.751 M213.103 58.325 C 215.579 66.228,214.717 65.387,221.363 66.383 C 278.931 75.012,323.828 119.785,333.217 177.930 C 333.668 180.723,334.157 183.118,334.304 183.254 C 334.564 183.493,342.022 186.328,342.392 186.328 C 343.203 186.328,341.374 173.826,339.294 165.152 C 325.186 106.313,275.497 63.175,214.596 56.895 L 212.591 56.688 213.103 58.325 M179.296 57.820 C 114.351 67.285,64.067 119.204,57.882 183.182 C 57.530 186.825,56.976 186.665,62.634 184.552 C 66.771 183.006,66.103 184.018,67.131 177.734 C 76.920 117.879,122.234 74.065,182.863 65.837 L 184.671 65.591 186.086 61.580 C 186.863 59.374,187.500 57.448,187.500 57.300 C 187.500 56.868,184.540 57.056,179.296 57.820 M201.852 68.457 C 205.116 77.767,229.346 150.471,229.226 150.592 C 229.026 150.791,213.280 144.836,213.289 144.565 C 213.293 144.439,215.034 143.672,217.157 142.860 L 221.018 141.384 219.691 137.621 C 218.960 135.551,218.315 133.810,218.257 133.752 C 218.198 133.693,214.198 135.129,209.368 136.941 L 200.586 140.238 189.412 136.094 C 183.266 133.816,178.021 131.818,177.756 131.654 C 177.295 131.369,179.645 124.295,193.335 84.766 C 195.009 79.932,196.861 74.395,197.450 72.461 C 198.849 67.872,199.990 64.844,200.321 64.844 C 200.467 64.844,201.156 66.470,201.852 68.457 M140.234 126.578 C 144.209 128.045,151.592 130.761,156.641 132.613 C 161.689 134.465,165.940 136.103,166.086 136.252 C 166.233 136.401,164.914 140.738,163.157 145.889 L 159.961 155.254 154.102 157.482 C 146.648 160.317,140.710 162.336,140.525 162.099 C 140.445 161.997,138.654 156.904,136.543 150.781 C 134.433 144.658,131.324 135.722,129.634 130.923 C 127.945 126.123,126.563 122.041,126.563 121.850 C 126.563 121.660,128.013 122.045,129.785 122.707 C 131.558 123.368,136.260 125.110,140.234 126.578 M181.870 142.226 C 185.211 143.536,187.889 144.656,187.820 144.716 C 187.617 144.893,171.289 150.781,171.001 150.781 C 170.791 150.781,173.114 143.817,174.421 140.527 C 174.819 139.526,175.215 139.616,181.870 142.226 M210.547 152.732 C 214.736 154.278,221.519 156.771,225.620 158.274 L 233.076 161.005 237.700 175.132 C 240.243 182.901,242.719 190.532,243.202 192.090 L 244.080 194.922 199.774 194.922 C 175.406 194.922,155.469 194.777,155.469 194.601 C 155.469 194.424,156.937 190.073,158.731 184.933 C 160.526 179.792,163.011 172.510,164.254 168.750 C 165.497 164.990,166.719 161.691,166.970 161.418 C 168.280 159.994,200.175 148.949,201.563 149.439 C 202.314 149.705,206.357 151.187,210.547 152.732 M153.653 172.949 C 152.243 176.978,150.600 181.680,150.003 183.398 C 149.362 185.241,148.822 186.283,148.688 185.938 C 146.810 181.113,143.385 170.523,143.626 170.287 C 143.921 169.998,155.318 165.708,155.941 165.650 C 156.093 165.636,155.063 168.921,153.653 172.949 M138.938 183.999 C 140.940 189.675,142.578 194.454,142.578 194.620 C 142.578 194.982,83.269 194.954,78.523 194.590 L 75.210 194.336 78.914 192.882 C 85.417 190.329,89.958 188.727,112.500 181.037 C 124.639 176.896,134.734 173.547,134.935 173.594 C 135.135 173.642,136.937 178.324,138.938 183.999 M143.750 203.467 C 143.750 203.654,143.471 204.577,143.130 205.517 C 142.789 206.457,141.030 211.445,139.221 216.602 C 137.412 221.758,135.852 226.193,135.755 226.456 C 135.577 226.939,130.091 225.139,112.891 218.955 C 108.916 217.525,100.918 214.682,95.117 212.635 C 77.261 206.336,70.783 203.780,71.891 203.471 C 73.326 203.071,143.750 203.067,143.750 203.467 M245.991 203.613 C 245.712 204.342,240.252 220.066,236.810 230.052 L 233.789 238.814 227.148 241.303 C 223.496 242.672,215.965 245.454,210.412 247.485 L 200.317 251.177 191.858 248.091 C 187.205 246.394,179.642 243.620,175.050 241.927 L 166.702 238.849 164.649 232.803 C 159.836 218.633,155.119 204.834,154.873 204.204 C 154.574 203.439,156.424 203.409,216.741 203.218 C 240.160 203.144,246.139 203.225,245.991 203.613 M57.694 215.324 C 62.121 272.628,104.984 323.433,161.719 338.623 C 169.841 340.798,182.043 342.969,186.145 342.969 L 187.484 342.969 185.999 338.791 L 184.513 334.613 177.120 333.378 C 119.467 323.741,73.399 276.597,66.762 220.440 L 66.293 216.466 62.736 215.116 C 57.044 212.955,57.510 212.935,57.694 215.324 M338.281 214.945 C 336.025 215.811,334.154 216.538,334.124 216.560 C 334.093 216.583,333.684 219.238,333.215 222.461 C 325.034 278.684,278.485 325.237,222.070 333.615 C 218.848 334.093,216.152 334.534,216.080 334.594 C 215.962 334.692,212.891 342.894,212.891 343.111 C 212.891 343.363,220.397 342.445,225.330 341.590 C 286.148 331.042,333.660 282.188,341.947 221.680 C 342.679 216.329,342.926 213.268,342.618 213.326 C 342.489 213.351,340.537 214.080,338.281 214.945 M252.739 218.361 C 255.836 226.658,256.993 229.854,256.917 229.906 C 256.410 230.254,244.855 234.438,244.735 234.318 C 244.645 234.228,245.794 230.557,247.289 226.159 C 250.502 216.708,251.213 214.754,251.378 214.919 C 251.445 214.987,252.058 216.536,252.739 218.361 M260.145 239.160 C 260.396 239.858,263.052 247.549,266.048 256.250 C 269.044 264.951,272.013 273.521,272.647 275.293 C 273.818 278.567,273.778 278.810,272.186 278.136 C 271.693 277.927,265.664 275.659,258.789 273.094 C 220.149 258.683,212.711 255.676,214.258 255.088 C 214.902 254.843,218.601 253.423,222.478 251.931 C 226.354 250.439,229.639 249.219,229.777 249.219 C 229.916 249.219,229.513 250.743,228.884 252.606 C 227.538 256.586,227.233 256.063,231.945 257.854 L 235.729 259.292 238.275 252.045 L 240.820 244.798 244.336 243.443 C 260.850 237.077,259.526 237.436,260.145 239.160 " stroke="none" fill="#232324" fill-rule="evenodd"></path></g></svg>