<svg xmlns="http://www.w3.org/2000/svg" version="1.1" viewBox="-5.0 -10.0 110.0 135.0">
 <path d="m19.809 45.73c1.3398-0.77344 3.5156-0.77344 4.8555 0 1.3398 0.77734 1.3398 2.0312 0 2.8047-1.3398 0.77734-3.5156 0.77734-4.8555 0-1.3438-0.77344-1.3438-2.0273 0-2.8047z"/>
 <path d="m52.312 45.73c-1.3398-0.77344-3.5156-0.77344-4.8555 0-1.3398 0.77734-1.3398 2.0312 0 2.8047 1.3398 0.77734 3.5156 0.77734 4.8555 0 1.3438-0.77344 1.3438-2.0273 0-2.8047z"/>
 <path d="m58.848 57.051c0-1.5469-1.0859-2.1758-2.4258-1.4023-1.3438 0.77734-2.4297 2.6602-2.4297 4.207 0 1.5508 1.0859 2.1758 2.4297 1.4023 1.3398-0.77344 2.4258-2.6562 2.4258-4.207z"/>
 <path d="m13.152 57.121c0-1.5469 1.0859-2.1758 2.4258-1.4023 1.3438 0.77344 2.4297 2.6602 2.4297 4.207 0 1.5508-1.0859 2.1758-2.4297 1.4023-1.3398-0.77344-2.4258-2.6562-2.4258-4.207z"/>
 <path d="m26.977 65.105c0-1.5508 1.0859-2.1797 2.4258-1.4023 1.3438 0.77344 2.4297 2.6562 2.4297 4.2031 0 1.5508-1.0859 2.1797-2.4297 1.4023-1.3398-0.77344-2.4258-2.6562-2.4258-4.2031z"/>
 <path d="m29.402 79.664c-1.3398-0.77344-2.4258-0.14453-2.4258 1.4023 0 1.5508 1.0859 3.4336 2.4258 4.207 1.3438 0.77344 2.4297 0.14844 2.4297-1.4023 0-1.5469-1.0859-3.4336-2.4297-4.207z"/>
 <path d="m15.578 71.684c-1.3398-0.77344-2.4258-0.14844-2.4258 1.4023 0 1.5469 1.0859 3.4336 2.4258 4.207 1.3438 0.77344 2.4297 0.14453 2.4297-1.4023 0-1.5508-1.0859-3.4336-2.4297-4.207z"/>
 <path d="m15.578 63.703c-1.3398-0.77734-2.4258-0.14844-2.4258 1.3984 0 1.5508 1.0859 3.4336 2.4258 4.207 1.3438 0.77734 2.4297 0.14844 2.4297-1.4023 0-1.5469-1.0859-3.4297-2.4297-4.2031z"/>
 <path d="m26.977 73.086c0-1.5508 1.0859-2.1758 2.4258-1.4023 1.3438 0.77344 2.4297 2.6562 2.4297 4.207 0 1.5469-1.0859 2.1758-2.4297 1.4023-1.3398-0.77344-2.4258-2.6602-2.4258-4.207z"/>
 <path d="m45.023 80.996c0-1.5469-1.0859-2.1758-2.4258-1.4023-1.3438 0.77734-2.4297 2.6602-2.4297 4.207 0 1.5508 1.0859 2.1758 2.4297 1.4023 1.3398-0.77344 2.4258-2.6562 2.4258-4.207z"/>
 <path d="m58.848 73.016c0-1.5508-1.0859-2.1758-2.4258-1.4023-1.3438 0.77344-2.4297 2.6562-2.4297 4.207 0 1.5469 1.0859 2.1758 2.4297 1.4023 1.3398-0.77344 2.4258-2.6602 2.4258-4.207z"/>
 <path d="m42.598 63.633c1.3398-0.77734 2.4258-0.14844 2.4258 1.4023 0 1.5469-1.0859 3.4297-2.4258 4.207-1.3438 0.77344-2.4297 0.14453-2.4297-1.4023 0-1.5508 1.0859-3.4336 2.4297-4.207z"/>
 <path d="m49.508 67.621c1.3398-0.77344 2.4297-0.14453 2.4297 1.4023 0 1.5508-1.0898 3.4336-2.4297 4.207-1.3398 0.77344-2.4297 0.14844-2.4297-1.4023 0-1.5469 1.0898-3.4297 2.4297-4.207z"/>
 <path d="m38.488 45.73c-1.3398-0.77344-3.5156-0.77344-4.8555 0-1.3438 0.77734-1.3438 2.0312 0 2.8047 1.3398 0.77734 3.5156 0.77734 4.8555 0 1.3438-0.77344 1.3438-2.0273 0-2.8047z"/>
 <path d="m37.781 25.688c0-3.6523 1.9492-7.0273 5.1133-8.8516l16.996-9.8125c3.1602-1.8281 7.0586-1.8281 10.219 0l16.996 9.8125c3.1641 1.8242 5.1133 5.1992 5.1133 8.8516v19.625c0 3.6523-1.9492 7.0273-5.1133 8.8516l-16.996 9.8125c-1.8125 1.0508-3.8711 1.4961-5.8906 1.3398v7.9961c0 4.0078-2.1406 7.7148-5.6133 9.7188l-16.996 9.8125c-3.4688 2.0039-7.75 2.0039-11.219 0l-16.996-9.8125c-3.4727-2.0039-5.6133-5.7109-5.6133-9.7188v-19.625c0-4.0078 2.1406-7.7148 5.6133-9.7188l16.996-9.8125c2.2695-1.3125 4.8828-1.7656 7.3906-1.3633zm44.168-3.9805c1.3398-0.77734 1.3398-2.0312 0-2.8047-1.3438-0.77734-3.5156-0.77734-4.8594 0-1.3398 0.77344-1.3398 2.0273 0 2.8047 1.3438 0.77344 3.5156 0.77344 4.8594 0zm-6.9141-6.7969c1.3438 0.77344 1.3438 2.0312 0 2.8047-1.3398 0.77344-3.5156 0.77344-4.8555 0-1.3438-0.77344-1.3438-2.0312 0-2.8047 1.3398-0.77344 3.5156-0.77344 4.8555 0zm-6.9102-1.1875c1.3398-0.77344 1.3398-2.0273 0-2.8047-1.3438-0.77344-3.5156-0.77344-4.8594 0-1.3398 0.77734-1.3398 2.0312 0 2.8047 1.3438 0.77344 3.5156 0.77344 4.8594 0zm-13.828 5.1797c1.3438 0.77344 1.3438 2.0273 0 2.8047-1.3398 0.77344-3.5156 0.77344-4.8555 0-1.3398-0.77734-1.3398-2.0312 0-2.8047 1.3398-0.77734 3.5156-0.77734 4.8555 0zm6.9141 6.793c1.3398-0.77344 1.3398-2.0273 0-2.8047-1.3398-0.77344-3.5156-0.77344-4.8555 0-1.3438 0.77734-1.3438 2.0312 0 2.8047 1.3398 0.77344 3.5156 0.77344 4.8555 0zm6.9141 1.1875c1.3398 0.77344 1.3398 2.0312 0 2.8047-1.3438 0.77344-3.5156 0.77344-4.8594 0-1.3398-0.77344-1.3398-2.0312 0-2.8047 1.3438-0.77344 3.5156-0.77344 4.8594 0zm-22.789 7.6836c1.3398 0.77344 2.4258 0.14844 2.4258-1.4023 0-1.5469-1.0859-3.4336-2.4258-4.207-1.3438-0.77344-2.4297-0.14453-2.4297 1.4023 0 1.5508 1.0859 3.4336 2.4297 4.207zm16.254 6.5781c0 1.5508-1.0898 2.1797-2.4297 1.4023-1.3438-0.77344-2.4297-2.6562-2.4297-4.2031 0-1.5508 1.0859-2.1797 2.4297-1.4023 1.3398 0.77344 2.4297 2.6562 2.4297 4.2031zm13.07 13.16c0 1.5508-1.0898 3.4336-2.4297 4.207-1.3398 0.77344-2.4297 0.14844-2.4297-1.4023 0-1.5469 1.0898-3.4297 2.4297-4.207 1.3398-0.77344 2.4297-0.14453 2.4297 1.4023zm4.4805-7.7656c1.3438-0.77344 2.4297-2.6562 2.4297-4.207 0-1.5469-1.0859-2.1758-2.4297-1.4023-1.3398 0.77734-2.4258 2.6602-2.4258 4.207 0 1.5508 1.0859 2.1758 2.4258 1.4023zm9.3438-16.18c0 1.5508-1.0898 3.4336-2.4297 4.207-1.3398 0.77344-2.4297 0.14844-2.4297-1.4023 0-1.5469 1.0898-3.4336 2.4297-4.207 1.3398-0.77344 2.4297-0.14453 2.4297 1.4023zm-47.875 5.5273c-2.8516-1.6445-6.3672-1.6445-9.2188 0l-16.996 9.8125c-2.8555 1.6484-4.6133 4.6914-4.6133 7.9883v19.625c0 3.2969 1.7578 6.3398 4.6133 7.9883l16.996 9.8125c2.8516 1.6445 6.3672 1.6445 9.2188 0l16.996-9.8125c2.8555-1.6484 4.6133-4.6914 4.6133-7.9883v-19.625c0-3.2969-1.7578-6.3398-4.6133-7.9883z" fill-rule="evenodd"/>
<text x="0.0" y="117.5" font-size="5.0" font-weight="bold" font-family="Arbeit Regular, Helvetica, Arial-Unicode, Arial, Sans-serif" fill="#000000">Created by B&#214;CK</text><text x="0.0" y="122.5" font-size="5.0" font-weight="bold" font-family="Arbeit Regular, Helvetica, Arial-Unicode, Arial, Sans-serif" fill="#000000">from Noun Project</text></svg>