<svg xmlns="http://www.w3.org/2000/svg" xmlns:xlink="http://www.w3.org/1999/xlink" xmlns:xodm="http://www.corel.com/coreldraw/odm/2003" xml:space="preserve" version="1.1" style="shape-rendering:geometricPrecision;text-rendering:geometricPrecision;image-rendering:optimizeQuality;" viewBox="0 0 39370.08 49212.600000000006" x="0px" y="0px" fill-rule="evenodd" clip-rule="evenodd"><defs><style type="text/css">
   
    .fil0 {fill:black;fill-rule:nonzero}
   
  </style></defs><g><path class="fil0" d="M14733.2 6514.14c701.55,0 1340.36,87.67 1806.04,229.39 341.2,103.84 597.32,243.63 733.86,408.87 143.9,174.14 111.24,345.88 111.24,553.65l0 1322.85c0,76.13 -0.4,146.69 -2.49,212.68l1434.81 0c305.3,-1134.99 650.65,-2182.57 2021.65,-2182.57l7651.17 0c-247.18,-1212.39 -807.9,-2841.55 -1480.82,-3766.57 -866.36,-1190.94 -1854.72,-1452.06 -3256.02,-1452.06l-9111.62 0c-347.18,0 -776.89,-20.06 -1082.56,161.11 -391.79,232.21 -567.18,766.14 -680.83,1189.18 -188.31,700.78 -380.37,1333.63 -876.57,1559.48 -195.63,89.38 -331.52,-208.07 -135.9,-297.44 345.23,-157.13 513.93,-677.35 674.85,-1269.14l-955.32 0c58.18,102.54 92.48,228.54 92.44,382.62 -0.15,614.06 -38.94,848.84 -665.96,1163.68 -1038.19,521.31 -3066.31,489.09 -4275.02,401.12 -1191.36,-86.72 -1418.38,633.88 -1578.13,1644.49l-734.73 4648c-98.86,625.46 -33.96,1259.91 468.97,1708.19 385.25,343.38 962.51,526.87 1623.1,625.83 1205.67,180.62 2701.71,312.96 4343.18,398.09l165.01 -1043.88c83.73,-529.7 206.95,-1158.05 609.11,-1545.89l-0.09 -1613.39c-0.07,-317.28 150.21,-562.64 446.61,-681.43l2.86 -1835.81c0,-382.56 547.4,-601.03 845.11,-691.63 465.68,-141.73 1104.49,-229.39 1806.04,-229.39zm14092.46 544.86l1115.6 0c1125.23,0 1981.99,192.91 2815.73,1072.78 582.12,614.33 988.68,1430.78 1363.69,2295.75 459.35,1059.46 759.21,2185.18 943.5,3305.41 220.78,1342.1 275.95,2677.85 241.02,3882.34 -18.78,647.4 -209.54,1254.92 -629.14,1754.91l0 13263.64c0,1688.78 -11.42,3687.48 -1083.39,5056.29 -803.42,1025.9 -2108.07,1552.04 -4135.1,1552.04l-13877.23 0c-3597.37,0 -4926.25,-1869.46 -4926.25,-5258l0 -1128.23 -1262.36 0c-3597.37,0 -4926.25,-1869.46 -4926.25,-5258l0 -14439.94c-402.47,-497.8 -467.46,-1138.02 -370.68,-1750.29l740.15 -4682.24c83.73,-529.7 206.95,-1158.06 609.11,-1545.9l-0.09 -1613.39c-0.07,-317.28 150.21,-562.64 446.61,-681.43l2.86 -1835.81c0,-382.56 547.4,-601.03 845.11,-691.64 465.68,-141.72 1104.49,-229.39 1806.04,-229.39 701.55,0 1340.36,87.67 1806.04,229.39 341.2,103.84 597.32,243.64 733.86,408.87 143.9,174.13 111.24,345.88 111.24,553.65l0 1322.85c0,76.12 -0.4,146.69 -2.49,212.68l1434.81 0c305.3,-1135 650.65,-2182.57 2021.65,-2182.57l9102.94 0c1125.23,0 1981.99,192.91 2815.73,1072.78 582.12,614.33 988.68,1430.78 1363.69,2295.75 420.03,968.78 706.69,1992.97 893.59,3017.7zm-18171.57 25468.72l0 -2887.86c-594.15,-24.04 -1175.44,-51.93 -1739.64,-83.66 -1519.11,-85.44 -3380.32,-428.61 -4120.76,-1936.66 0,3196.45 1205.04,4908.17 4598.04,4908.17l1262.36 0zm0 -3215.68l0 -1932.84c-1218.7,-61.31 -2206.97,-136.77 -2816.95,-214.94 -150.16,-19.23 -273.25,-100.54 -273.25,-271.3l0 -10993.6c0,-121.44 107,-214.82 227.39,-198.56 825.18,111.6 1765.58,202.89 2779.75,273.6l236.1 -1493.6c-1638.93,-85.62 -3132.94,-218.26 -4339.21,-398.96 -656.25,-98.31 -1242.65,-278.42 -1674.23,-607.06l0 12680.88c57.79,2414.24 2113.64,2959.72 4138.7,3073.62 557.82,31.37 1133.12,58.96 1721.7,82.76zm0 -2129.14l0 -7638.67c-402.47,-497.8 -467.46,-1138.02 -370.68,-1750.29l253.66 -1604.69c-968.33,-72.36 -1869.17,-165.46 -2666.09,-279.7 -111.87,-16.04 -114.5,-19.05 -110.16,108.97l0 10823.44c-1.08,97.49 19.59,117.31 118.43,129.82 606.14,76.74 1578.13,150.77 2774.85,211.12zm2606.46 -25200.57c62.96,-59.75 128.91,-109.18 197.92,-150.08 349.19,-206.96 785.19,-188.8 1178.22,-188.8l9107.28 0c1459.99,0 2493.35,273.07 3403.72,1506.18 -236.07,-441.42 -499.9,-844.32 -816.5,-1178.43 -771.3,-813.98 -1548.61,-970.22 -2578.54,-970.22l-9107.28 0c-710.19,0 -1097.39,336.98 -1384.82,981.35zm-2765.23 983.26c0,129.52 -196.93,129.52 -196.93,0l0 -822.11c0,-129.52 196.93,-129.52 196.93,0l0 822.11zm-926.14 212.99c0,129.52 -196.93,129.52 -196.93,0l0 -822.1c0,-129.52 196.93,-129.52 196.93,0l0 822.1zm-926.13 60.94c0,129.52 -196.93,129.52 -196.93,0l0 -822.11c0,-129.52 196.93,-129.52 196.93,0l0 822.11zm-926.13 -60.94c0,129.52 -196.93,129.52 -196.93,0l0 -822.1c0,-129.52 196.93,-129.52 196.93,0l0 822.1zm-926.13 -212.99c0,129.52 -196.93,129.52 -196.93,0l0 -822.11c0,-129.52 196.93,-129.52 196.93,0l0 822.11zm8390.26 486.12c139.33,793.48 937.28,1153.8 1675.65,1153.8l6646.53 0c397.12,0 747.81,-202.13 877.29,-587.73 -384.07,-613.91 -1014.52,-700.91 -1682.97,-700.91l-6775.65 0c-270.87,0 -490.14,1.41 -740.85,134.84zm9629.99 706.68c333.89,920.2 -162.79,1858.86 -858.71,2458.63 -162.54,140.64 -376.64,-106.81 -214.11,-247.44 552.21,-475.91 990.32,-1204.36 808.76,-1954.68 -233.33,342.84 -634.3,518.81 -1043.76,518.81l-6646.53 0c-834.64,0 -1714.87,-404.25 -1959.35,-1257.97 -628.3,699.56 -484.19,1808.38 -1461.7,2630.77 -164.22,138.11 -374.48,-111.89 -210.26,-250.01 1260.2,-1060.2 585.41,-3067.85 2696.52,-3067.85l6771.3 0c933.65,0 1780.44,239.94 2117.84,1169.72zm-13460.84 -592.22c0.04,-161.47 -54.33,-285.07 -200.96,-358.96 -73.74,267.17 -248.25,409.54 -497.06,518.37 -602.26,263.46 -1454.17,339.57 -2107.6,338.89 -644.78,-0.67 -1444.39,-72.79 -2045.12,-316.23 -343.37,-139.15 -495.14,-329.32 -560.82,-522.52 -124.7,76.87 -167.77,125.89 -167.74,340.45l0.07 1385.43c252.8,-122.42 574.17,-177.71 988.27,-147.56 1140.24,82.98 3134.7,121.1 4105.77,-366.5 491.74,-246.91 485.08,-373.69 485.19,-871.37zm-482.68 -2073.1c-451.32,284.29 -1322.32,476.9 -2322.93,476.9 -701.55,0 -1340.36,-87.67 -1806.04,-229.39 -205.77,-62.63 -380.57,-138.33 -516.9,-224.8 0,417.9 9.3,844.48 -2.13,1261.31 -5.69,207.4 -13.67,498.45 403.03,667.31 556.09,225.35 1325.05,292.52 1922.04,293.15 604.69,0.63 1419.41,-68.13 1976.83,-311.96 169.04,-73.94 254.69,-152.37 295.59,-256.09 47.02,-119.23 50.52,-291.26 50.52,-526.83l0 -1149.59zm-213.49 -666.63c-101.83,-54.4 -236.91,-107.21 -398.27,-156.32 -434.45,-132.22 -1039.17,-214 -1711.17,-214 -672.01,0 -1276.72,81.78 -1711.17,214 -810.81,246.76 -810.8,510.87 0,757.63 434.44,132.22 1039.17,214 1711.17,214 641.02,0 1221.4,-66.27 1641.69,-173.41 187.35,-47.76 342.9,-103.65 457.83,-165.41 296.33,-159.24 296.39,-323.47 9.92,-476.49zm17379.48 31427.74c-76.31,76.31 -192.35,-39.72 -116.03,-116.03l2103.3 -2103.3c76.31,-76.31 192.35,39.72 116.03,116.03l-2103.3 2103.3zm1281.43 0c-76.31,76.31 -192.34,-39.72 -116.02,-116.03l821.86 -821.87c76.31,-76.31 192.35,39.72 116.03,116.03l-821.87 821.87zm-15562.44 1025.01l0 -10993.6c0,-121.44 107,-214.82 227.39,-198.56 4590,620.8 12739.22,614.28 17374.26,-77.26 120.8,-17.95 229.91,76.27 229.91,198.36l0 11052.75c0,99.21 -72.57,183.42 -170.59,198.37 -2046.5,308.53 -5022.13,432.82 -7970.03,447.4 -3967.16,19.62 -7885.33,-159.81 -9417.69,-356.16 -150.16,-19.23 -273.25,-100.54 -273.25,-271.31zm196.93 -10874.44l0 10823.44c-1.08,97.49 19.59,117.31 118.43,129.83 1537.92,194.7 5430.7,371.99 9374.82,352.48 2893.15,-14.31 5813.25,-134.78 7849.28,-432.17 83.28,-12.16 95.19,-35.9 95.19,-108.78l0 -10869.55c-2.17,-98.45 -0.1,-96.56 -100.42,-81.48 -4627.58,695.38 -12641.9,734.52 -17227.13,77.24 -111.87,-16.04 -114.5,-19.05 -110.16,108.98zm-2967.13 10137.14c57.79,2414.23 2113.64,2959.72 4138.7,3073.62 2313.48,130.11 4927.09,195.17 7545.17,195.17 2618.07,0 5231.69,-65.06 7545.16,-195.17 1921.73,-108.09 4089.84,-663.28 4136.51,-2982.62l0 -12966.04c-624.39,404.57 -1761.41,602.91 -2483.91,715.15 -4920.84,764.48 -14372.33,810.38 -19207.41,86.06 -656.25,-98.31 -1242.65,-278.42 -1674.23,-607.06l0 12680.88zm23345.63 1533.85c-762.72,1425.98 -2626.42,1783.89 -4098.65,1866.69 -2328.65,130.97 -4948.12,196.46 -7563.11,196.46 -2615,0 -5234.47,-65.49 -7563.12,-196.46 -1519.11,-85.44 -3380.32,-428.61 -4120.76,-1936.66 0,3196.45 1205.04,4908.17 4598.04,4908.17l13877.23 0c1917.13,0 3139.69,-483.11 3877.41,-1425.11 628.41,-802.43 917.74,-1945.89 992.96,-3413.09zm-1130.66 -24397.09c-866.36,-1190.94 -1854.72,-1452.06 -3256.02,-1452.06l-9111.62 0c-347.18,0 -776.89,-20.06 -1082.56,161.11 -391.79,232.2 -567.18,766.13 -680.83,1189.18 -188.31,700.78 -380.37,1333.63 -876.57,1559.48 -195.63,89.37 -331.52,-208.07 -135.9,-297.45 345.23,-157.13 513.93,-677.35 674.85,-1269.14l-955.32 0c58.18,102.54 92.48,228.54 92.44,382.62 -0.15,614.06 -38.94,848.84 -665.96,1163.68 -1038.19,521.31 -3066.31,489.09 -4275.02,401.12 -1191.36,-86.72 -1418.38,633.88 -1578.13,1644.49l-734.73 4648c-98.86,625.45 -33.96,1259.91 468.97,1708.19 385.25,343.38 962.51,526.87 1623.1,625.83 4805.84,719.94 14218.61,675.12 19109.97,-84.78 1643.7,-255.35 3107.03,-477.09 3164.32,-2452.61 34.38,-1185.48 -19.9,-2500.08 -237.17,-3820.81 -202.31,-1229.69 -805.6,-3092.07 -1543.82,-4106.85zm-13748.11 -1310.1c62.96,-59.75 128.91,-109.18 197.92,-150.08 349.19,-206.96 785.19,-188.8 1178.22,-188.8l9107.28 0c1459.99,0 2493.35,273.07 3403.72,1506.18 -236.07,-441.42 -499.9,-844.32 -816.5,-1178.43 -771.3,-813.98 -1548.61,-970.22 -2578.54,-970.22l-9107.28 0c-710.19,0 -1097.39,336.97 -1384.82,981.35zm-1071.65 7595.52c-129.52,0 -129.52,-196.93 0,-196.93l10514.98 0c1523.07,0 3418.81,-219.63 3978.07,-1896.94 40.47,-122.43 226.63,-60.9 186.16,61.54 -591.92,1775.27 -2542.93,2032.34 -4164.23,2032.34l-10514.98 0zm-1693.58 -6612.26c0,129.52 -196.93,129.52 -196.93,0l0 -822.1c0,-129.52 196.93,-129.52 196.93,0l0 822.1zm-926.14 212.99c0,129.52 -196.93,129.52 -196.93,0l0 -822.1c0,-129.52 196.93,-129.52 196.93,0l0 822.1zm-926.13 60.94c0,129.52 -196.93,129.52 -196.93,0l0 -822.11c0,-129.52 196.93,-129.52 196.93,0l0 822.11zm-926.13 -60.94c0,129.52 -196.93,129.52 -196.93,0l0 -822.1c0,-129.52 196.93,-129.52 196.93,0l0 822.1zm-926.13 -212.99c0,129.52 -196.93,129.52 -196.93,0l0 -822.1c0,-129.52 196.93,-129.52 196.93,0l0 822.1zm8390.26 486.12c139.33,793.48 937.28,1153.8 1675.65,1153.8l6646.53 0c397.12,0 747.81,-202.13 877.29,-587.73 -384.07,-613.91 -1014.52,-700.9 -1682.97,-700.9l-6775.65 0c-270.87,0 -490.14,1.41 -740.85,134.83zm9629.99 706.68c333.89,920.2 -162.79,1858.86 -858.71,2458.64 -162.54,140.64 -376.64,-106.81 -214.11,-247.44 552.21,-475.91 990.32,-1204.36 808.76,-1954.68 -233.33,342.84 -634.3,518.81 -1043.76,518.81l-6646.53 0c-834.64,0 -1714.87,-404.25 -1959.35,-1257.97 -628.3,699.56 -484.19,1808.38 -1461.7,2630.77 -164.22,138.11 -374.48,-111.89 -210.26,-250.01 1260.2,-1060.2 585.41,-3067.85 2696.52,-3067.85l6771.3 0c933.65,0 1780.44,239.94 2117.84,1169.72zm-13460.84 -592.22c0.04,-161.47 -54.33,-285.07 -200.96,-358.96 -73.74,267.17 -248.25,409.54 -497.06,518.37 -602.26,263.45 -1454.17,339.57 -2107.6,338.89 -644.78,-0.67 -1444.39,-72.79 -2045.12,-316.23 -343.37,-139.15 -495.14,-329.31 -560.82,-522.52 -124.7,76.86 -167.77,125.88 -167.74,340.44l0.07 1385.43c252.8,-122.42 574.17,-177.71 988.27,-147.56 1140.24,82.98 3134.7,121.1 4105.77,-366.5 491.74,-246.91 485.08,-373.69 485.19,-871.37zm-482.68 -2073.1c-451.32,284.29 -1322.32,476.9 -2322.93,476.9 -701.55,0 -1340.36,-87.67 -1806.04,-229.39 -205.77,-62.63 -380.57,-138.33 -516.9,-224.8 0,417.9 9.3,844.49 -2.13,1261.31 -5.69,207.39 -13.67,498.44 403.03,667.31 556.09,225.35 1325.05,292.53 1922.04,293.15 604.69,0.63 1419.41,-68.13 1976.83,-311.96 169.04,-73.94 254.69,-152.37 295.59,-256.09 47.02,-119.23 50.52,-291.26 50.52,-526.83l0 -1149.59zm-213.49 -666.63c-101.83,-54.4 -236.91,-107.21 -398.27,-156.32 -434.45,-132.22 -1039.17,-214 -1711.17,-214 -672.01,0 -1276.72,81.78 -1711.17,214 -810.81,246.76 -810.8,510.87 0,757.63 434.44,132.22 1039.17,214 1711.17,214 641.02,0 1221.4,-66.26 1641.69,-173.41 187.35,-47.76 342.9,-103.65 457.83,-165.41 296.33,-159.24 296.39,-323.46 9.92,-476.49z"/></g><text x="0" y="39385.08" fill="#000000" font-size="5px" font-weight="bold" font-family="'Helvetica Neue', Helvetica, Arial-Unicode, Arial, Sans-serif">Created by Oleksandr Panasovskyi</text><text x="0" y="39390.08" fill="#000000" font-size="5px" font-weight="bold" font-family="'Helvetica Neue', Helvetica, Arial-Unicode, Arial, Sans-serif">from the Noun Project</text></svg>