<?xml version="1.0" standalone="no"?>
<!DOCTYPE svg PUBLIC "-//W3C//DTD SVG 20010904//EN"
 "http://www.w3.org/TR/2001/REC-SVG-20010904/DTD/svg10.dtd">
<svg version="1.0" xmlns="http://www.w3.org/2000/svg"
 width="296.000000pt" height="578.000000pt" viewBox="0 0 296.000000 578.000000"
 preserveAspectRatio="xMidYMid meet">

<g transform="translate(0.000000,578.000000) scale(0.100000,-0.100000)"
fill="#000000" stroke="none">
<path d="M1394 5729 c89 -79 125 -266 95 -500 -13 -102 4 -92 -187 -109 -175
-16 -270 -10 -349 23 l-62 25 26 -41 c14 -23 38 -56 54 -72 61 -65 84 -277 76
-695 -6 -287 -14 -416 -58 -880 -14 -148 -19 -252 -14 -305 18 -221 77 -345
165 -345 33 0 78 27 178 107 170 138 319 316 406 486 73 145 74 156 5 82 -33
-35 -97 -88 -142 -117 -82 -52 -283 -141 -299 -132 -11 7 -10 941 1 948 5 3
39 8 77 12 l69 6 55 -63 c120 -138 294 -384 284 -401 -3 -5 -41 -29 -85 -55
-44 -25 -77 -48 -75 -51 3 -2 53 4 111 13 58 10 107 16 109 14 2 -2 41 -69 86
-149 184 -322 297 -466 410 -525 45 -24 222 -32 346 -16 120 16 264 43 264 51
0 3 -21 16 -47 29 -75 36 -272 155 -333 200 -84 64 -231 203 -379 360 l-133
141 97 45 c116 54 295 157 320 185 14 16 15 24 6 51 -17 50 -86 133 -175 211
l-81 72 -7 -63 c-10 -92 -53 -173 -137 -264 -40 -42 -86 -86 -101 -97 l-28
-20 -92 113 c-101 123 -131 152 -204 203 -32 21 -44 35 -35 38 8 2 91 7 184
10 140 4 173 3 189 -9 11 -8 37 -15 58 -15 32 0 41 5 58 33 30 47 62 159 130
452 83 350 81 327 30 402 -52 78 -124 153 -146 153 -10 0 -36 -9 -58 -19 -50
-24 -243 -68 -253 -58 -9 9 31 187 59 265 11 31 21 73 22 91 1 30 -4 39 -39
61 -59 40 -153 73 -315 114 -80 20 -153 38 -163 40 -10 3 2 -13 27 -35z m593
-671 c-4 -13 -18 -88 -32 -168 -14 -80 -28 -150 -30 -157 -3 -8 -22 -1 -57 22
-83 55 -100 56 -265 12 -96 -26 -270 -53 -280 -43 -3 3 -6 36 -8 73 -2 70 -19
118 -58 161 -13 13 -17 26 -11 31 5 5 131 23 279 40 149 17 302 35 340 40 122
15 128 14 122 -11z m-81 -459 c-3 -34 -6 -97 -6 -141 l0 -79 -30 16 c-37 19
-83 19 -146 0 -67 -20 -283 -62 -368 -71 l-69 -7 7 144 c4 79 10 147 12 151 3
5 18 8 34 8 16 0 51 5 78 11 77 16 205 26 356 28 l139 1 -7 -61z"/>
<path d="M225 5352 c-94 -28 -94 -29 -12 -83 76 -49 175 -148 202 -199 18 -35
80 -65 163 -80 102 -18 172 12 172 74 0 75 -126 227 -227 273 -76 35 -207 42
-298 15z"/>
<path d="M156 4730 c-27 -5 -62 -14 -77 -20 l-28 -12 74 -74 c55 -54 83 -92
110 -149 39 -81 72 -111 153 -139 71 -25 133 -30 175 -13 43 19 53 47 37 105
-13 52 -98 180 -147 223 -76 66 -191 97 -297 79z"/>
<path d="M851 4074 c-92 -154 -357 -481 -532 -655 -161 -162 -209 -187 -293
-153 -16 6 -15 2 7 -32 13 -21 43 -71 65 -110 105 -183 202 -210 301 -84 87
109 241 408 331 640 45 117 160 443 157 447 -2 1 -18 -23 -36 -53z"/>
<path d="M1125 2373 c46 -106 50 -127 49 -283 0 -125 -5 -184 -27 -305 -125
-685 -298 -1095 -606 -1444 -87 -98 -214 -209 -326 -283 l-90 -60 86 6 c243
17 463 119 636 294 216 220 329 396 457 716 l43 109 55 -74 c80 -109 140 -199
286 -434 158 -256 239 -370 314 -446 92 -94 154 -116 358 -126 103 -5 329 8
419 24 l33 6 -53 30 c-134 75 -303 182 -399 253 -212 156 -541 507 -848 906
-74 96 -81 109 -72 132 5 14 37 124 71 244 33 119 74 247 91 284 24 52 29 75
24 102 -15 77 -161 195 -383 309 -61 31 -114 57 -118 57 -4 0 -4 -8 0 -17z"/>
</g>
</svg>
